
<svg width="1000" height="726" xmlns="http://www.w3.org/2000/svg">

  <rect width="100%" height="100%" fill="#0D1117"/>

  <rect x="20" y="20" width="960" height="686" rx="25"
  fill="#161B22" stroke="#30363D"/>

  <text x="60" y="80"
  fill="#58A6FF"
  font-size="28"
  font-weight="bold">
  📊 Dashboard de Repositórios
  </text>

  <text x="60" y="130"
  fill="#E6EDF3"
  font-size="16">
  📦 7 Repositórios
  </text>

  <text x="310" y="130"
  fill="#FFD93D"
  font-size="16">
  ⭐ 9 Stars
  </text>

  <text x="480" y="130"
  fill="#DA70D6"
  font-size="16">
  👥 419 Seguidores
  </text>

  <text x="60" y="180"
  fill="#8B949E"
  font-size="16">
  Linguagens Mais Utilizadas
  </text>

  
      <text x="60" y="220" fill="#E6EDF3" font-size="14">JavaScript</text>
      <rect x="260" y="206" rx="10" width="450" height="16" fill="#21262D"/>
      <rect x="260" y="206" rx="10" width="0" height="16" fill="#FF6B6B">
        <animate attributeName="width" from="0" to="285.5" dur="1.2s" fill="freeze"/>
      </rect>
      <text x="730" y="220" fill="#8B949E" font-size="12">57.1%</text>
    
      <text x="60" y="260" fill="#E6EDF3" font-size="14">Python</text>
      <rect x="260" y="246" rx="10" width="450" height="16" fill="#21262D"/>
      <rect x="260" y="246" rx="10" width="0" height="16" fill="#6BCB77">
        <animate attributeName="width" from="0" to="71.5" dur="1.2s" fill="freeze"/>
      </rect>
      <text x="730" y="260" fill="#8B949E" font-size="12">14.3%</text>
    
      <text x="60" y="300" fill="#E6EDF3" font-size="14">TypeScript</text>
      <rect x="260" y="286" rx="10" width="450" height="16" fill="#21262D"/>
      <rect x="260" y="286" rx="10" width="0" height="16" fill="#4D96FF">
        <animate attributeName="width" from="0" to="71.5" dur="1.2s" fill="freeze"/>
      </rect>
      <text x="730" y="300" fill="#8B949E" font-size="12">14.3%</text>
    
      <text x="60" y="340" fill="#E6EDF3" font-size="14">HTML</text>
      <rect x="260" y="326" rx="10" width="450" height="16" fill="#21262D"/>
      <rect x="260" y="326" rx="10" width="0" height="16" fill="#FFD93D">
        <animate attributeName="width" from="0" to="71.5" dur="1.2s" fill="freeze"/>
      </rect>
      <text x="730" y="340" fill="#8B949E" font-size="12">14.3%</text>
    

  <line
    x1="60"
    y1="400"
    x2="940"
    y2="400"
    stroke="#30363D"
  />

  <text
    x="60"
    y="420"
    fill="#8B949E"
    font-size="18"
    font-weight="bold">
    📂 Todos os Repositórios (7)
  </text>

  
        <text x="60" y="450" fill="#58A6FF" font-size="14">
          📦 Gerador-de-pastas-e-Excel
        </text>

        <text x="410" y="450" fill="#FFD93D" font-size="14">
          ⭐ 5
        </text>

        <text x="510" y="450" fill="#8B949E" font-size="12">
          Python
        </text>
      
        <text x="60" y="478" fill="#58A6FF" font-size="14">
          📦 GitHub-Profile-Auto-Updater
        </text>

        <text x="410" y="478" fill="#FFD93D" font-size="14">
          ⭐ 2
        </text>

        <text x="510" y="478" fill="#8B949E" font-size="12">
          JavaScript
        </text>
      
        <text x="60" y="506" fill="#58A6FF" font-size="14">
          📦 RafaelaSommer
        </text>

        <text x="410" y="506" fill="#FFD93D" font-size="14">
          ⭐ 2
        </text>

        <text x="510" y="506" fill="#8B949E" font-size="12">
          JavaScript
        </text>
      
        <text x="60" y="534" fill="#58A6FF" font-size="14">
          📦 github-readme-stats
        </text>

        <text x="410" y="534" fill="#FFD93D" font-size="14">
          ⭐ 0
        </text>

        <text x="510" y="534" fill="#8B949E" font-size="12">
          JavaScript
        </text>
      
        <text x="60" y="562" fill="#58A6FF" font-size="14">
          📦 card-validator-senior
        </text>

        <text x="410" y="562" fill="#FFD93D" font-size="14">
          ⭐ 0
        </text>

        <text x="510" y="562" fill="#8B949E" font-size="12">
          JavaScript
        </text>
      
        <text x="60" y="590" fill="#58A6FF" font-size="14">
          📦 MailFLow
        </text>

        <text x="410" y="590" fill="#FFD93D" font-size="14">
          ⭐ 0
        </text>

        <text x="510" y="590" fill="#8B949E" font-size="12">
          TypeScript
        </text>
      
        <text x="60" y="618" fill="#58A6FF" font-size="14">
          📦 CursoDevClub
        </text>

        <text x="410" y="618" fill="#FFD93D" font-size="14">
          ⭐ 0
        </text>

        <text x="510" y="618" fill="#8B949E" font-size="12">
          HTML
        </text>
      

</svg>
